<svg xmlns="http://www.w3.org/2000/svg" width="620.742" height="295.738" viewBox="0 0 620.742 295.738">
  <g id="index_part3_article_chart2_pc" transform="translate(-667 -11531.003)">
    <text id="以連泰紙業2018年處理量40670公噸計算_2018年共領取8134萬補助金" data-name="以連泰紙業2018年處理量40670公噸計算，2018年共領取8134萬補助金" transform="translate(667 11652)" fill="#333" font-size="18" font-family="MicrosoftJhengHeiRegular, Microsoft JhengHei"><tspan x="0" y="19">以連泰紙業2018年處理量40670公噸</tspan><tspan x="0" y="46">計算，2018年共領取8134萬補助金</tspan></text>
    <text id="環保署紙容器補貼機制" transform="translate(667 11623)" fill="#333" font-size="18" font-family="MicrosoftJhengHeiBold, Microsoft JhengHei"><tspan x="0" y="19">環保署紙容器補貼機制</tspan></text>
    <g id="回收數據-05" transform="translate(939.417 11458.003)">
      <path id="Path_1099" data-name="Path 1099" d="M200.467,220.858,54.856,246.54A147.863,147.863,0,0,1,174.785,75.247,152.044,152.044,0,0,1,200.467,73Z" transform="translate(0)" fill="#ee964b"/>
      <path id="Path_1100" data-name="Path 1100" d="M208.512,220.858V73a147.869,147.869,0,0,1,0,295.739c-73.169,0-132.9-50.13-145.612-122.2Z" transform="translate(-8.044)" fill="#7681b3"/>
      <text id="_5.25元_給回收商" data-name="$5.25元
給回收商" transform="translate(172.898 281.071)" fill="#fff" font-size="22" font-family="Arial-BoldMT, Arial" font-weight="700"><tspan x="0" y="0">$5.25</tspan><tspan y="0" font-size="19" font-family="MicrosoftJhengHeiBold, Microsoft JhengHei" font-weight="400">元</tspan><tspan font-size="15" font-family="MicrosoftJhengHeiLight, Microsoft JhengHei" font-weight="400"><tspan x="0" y="22">給回收商</tspan></tspan></text>
      <g id="Group" transform="translate(101.022 149.183)">
        <text id="_2元" data-name="$2元" transform="translate(0 14)" fill="#fff" font-size="22" font-family="Arial-BoldMT, Arial" font-weight="700"><tspan x="0" y="0">$2</tspan><tspan y="0" font-size="20" font-family="MicrosoftJhengHeiBold, Microsoft JhengHei" font-weight="400">元</tspan></text>
        <text id="給連泰_正隆" data-name="給連泰、正隆" transform="translate(0 34.723)" fill="#fff" font-size="15" font-family="MicrosoftJhengHeiRegular, Microsoft JhengHei"><tspan x="0" y="0">給連泰、正隆</tspan></text>
      </g>
    </g>
  </g>
</svg>
