<svg xmlns="http://www.w3.org/2000/svg" width="325" height="364" viewBox="0 0 325 364">
  <g id="index_part3_article_chart2_m" transform="translate(-45 -8744)">
    <text id="以連泰紙業2018年處理量40670公噸計算_2018年共領取8134萬補助金" data-name="以連泰紙業2018年處理量40670公噸計算，2018年共領取8134萬補助金" transform="translate(45 8779)" fill="#333" font-size="18" font-family="MicrosoftJhengHeiRegular, Microsoft JhengHei"><tspan x="0" y="19">以連泰紙業2018年處理量40670公噸計</tspan><tspan x="0" y="46">算，2018年共領取8134萬補助金</tspan></text>
    <text id="環保署紙容器補貼機制" transform="translate(45 8744)" fill="#333" font-size="18" font-family="MicrosoftJhengHeiBold, Microsoft JhengHei"><tspan x="72.5" y="19">環保署紙容器補貼機制</tspan></text>
    <g id="回收數據-05" transform="translate(27.417 8781.003)">
      <path id="Path_1099" data-name="Path 1099" d="M179.594,199.989,54.535,222.046a126.993,126.993,0,0,1,103-147.116A130.584,130.584,0,0,1,179.594,73Z" fill="#ee964b"/>
      <path id="Path_1100" data-name="Path 1100" d="M187.959,199.989V73a127,127,0,0,1,0,254C125.118,327,73.815,283.942,62.9,222.046Z" transform="translate(-8.365)" fill="#7681b3"/>
      <text id="_5.25元給回收商" data-name="$5.25元給回收商" transform="translate(123.868 257.833)" fill="#fff" font-size="17" font-family="ArialMT, Arial"><tspan x="0" y="0">$5.25</tspan><tspan y="0" font-size="16" font-family="MicrosoftJhengHeiBold, Microsoft JhengHei">元</tspan><tspan y="0" font-size="16" font-family="MicrosoftJhengHeiRegular, Microsoft JhengHei">給回收商</tspan></text>
      <g id="Group" transform="translate(94.185 138.43)">
        <text id="_2元給" data-name="$2元給" transform="translate(-10 13)" fill="#fff" font-size="17" font-family="ArialMT, Arial"><tspan x="0" y="0">$2</tspan><tspan y="0" font-size="16" font-family="MicrosoftJhengHeiBold, Microsoft JhengHei">元</tspan><tspan y="0" font-size="16" font-family="MicrosoftJhengHeiRegular, Microsoft JhengHei">給</tspan></text>
        <text id="連泰_正隆" data-name="連泰、正隆" transform="translate(-10 33.798)" fill="#f2f2f2" font-size="16" font-family="MicrosoftJhengHeiRegular, Microsoft JhengHei"><tspan x="0" y="0">連泰、正隆</tspan></text>
      </g>
    </g>
  </g>
</svg>
