<svg xmlns="http://www.w3.org/2000/svg" width="701" height="633" viewBox="0 0 701 633">
  <g id="chart_web" transform="translate(-627 -3280)">
    <g id="Rectangle_458" data-name="Rectangle 458" transform="translate(1076 3720)" fill="#30343f" stroke="#c9c9c9" stroke-width="3">
      <rect width="190" height="85" rx="5" stroke="none"/>
      <rect x="1.5" y="1.5" width="187" height="82" rx="3.5" fill="none"/>
    </g>
    <g id="Rectangle_464" data-name="Rectangle 464" transform="translate(933 3664)" fill="none" stroke="#f86e6e" stroke-width="3">
      <rect width="109" height="30" rx="5" stroke="none"/>
      <rect x="1.5" y="1.5" width="106" height="27" rx="3.5" fill="none"/>
    </g>
    <rect id="Rectangle_459" data-name="Rectangle 459" width="146" height="37" transform="translate(1080 3771)" fill="#30343f"/>
    <line id="Line_31" data-name="Line 31" y2="154" transform="translate(1145.5 3567.5)" fill="none" stroke="#c9c9c9" stroke-width="3"/>
    <g id="Rectangle_456" data-name="Rectangle 456" transform="translate(1025 3523)" fill="#30343f" stroke="#c9c9c9" stroke-width="3">
      <rect width="119" height="28" rx="5" stroke="none"/>
      <rect x="1.5" y="1.5" width="116" height="25" rx="3.5" fill="none"/>
    </g>
    <line id="Line_27" data-name="Line 27" y2="45" transform="translate(1037.5 3478.5)" fill="none" stroke="#c9c9c9" stroke-width="3"/>
    <g id="Rectangle_463" data-name="Rectangle 463" transform="translate(836 3523)" fill="none" stroke="#f86e6e" stroke-width="3">
      <path d="M5,0H200a0,0,0,0,1,0,0V34a5,5,0,0,1-5,5H5a5,5,0,0,1-5-5V5A5,5,0,0,1,5,0Z" stroke="none"/>
      <path d="M5,1.5H197A1.5,1.5,0,0,1,198.5,3V34a3.5,3.5,0,0,1-3.5,3.5H5A3.5,3.5,0,0,1,1.5,34V5A3.5,3.5,0,0,1,5,1.5Z" fill="none"/>
    </g>
    <g id="Path_1101" data-name="Path 1101" transform="translate(762 3403)" fill="#30343f">
      <path d="M 262.7170104980469 38.5 L 14.27809429168701 38.5 C 10.76930904388428 38.5 7.4893798828125 37.55617904663086 5.04245138168335 35.84243011474609 C 2.758058547973633 34.24250030517578 1.499987125396729 32.16764450073242 1.499987125396729 30 L 1.499987125396729 10 C 1.499987125396729 7.832356929779053 2.758058547973633 5.757500171661377 5.04245138168335 4.157571315765381 C 7.4893798828125 2.443821430206299 10.76930904388428 1.5 14.27809429168701 1.5 L 262.7170104980469 1.5 C 266.2257995605469 1.5 269.5057373046875 2.443821430206299 271.9526672363281 4.157571315765381 C 274.237060546875 5.757500171661377 275.4951171875 7.832356929779053 275.4951171875 10 L 275.4951171875 30 C 275.4951171875 32.16764450073242 274.237060546875 34.24250030517578 271.9526672363281 35.84243011474609 C 269.5057373046875 37.55617904663086 266.2257995605469 38.5 262.7170104980469 38.5 Z" stroke="none"/>
      <path d="M 14.27810668945313 3 C 11.12078857421875 3 8.06817626953125 3.869731903076172 5.9029541015625 5.386192321777344 C 4.81878662109375 6.145500183105469 2.999969482421875 7.754615783691406 2.999969482421875 10 L 2.999969482421875 30 C 2.999969482421875 32.24538421630859 4.81878662109375 33.85449981689453 5.9029541015625 34.61380767822266 C 8.06817626953125 36.13026809692383 11.12078857421875 37 14.27810668945313 37 L 262.7170104980469 37 C 265.8743286132813 37 268.9269409179688 36.13026809692383 271.0921325683594 34.61380767822266 C 272.1763000488281 33.85449981689453 273.9950866699219 32.24538421630859 273.9950866699219 30 L 273.9950866699219 10 C 273.9950866699219 7.754615783691406 272.1763000488281 6.145500183105469 271.0921325683594 5.386192321777344 C 268.9269409179688 3.869731903076172 265.8743286132813 3 262.7170104980469 3 L 14.27810668945313 3 M 14.27810668945313 0 L 262.7170104980469 0 C 270.6026000976563 0 276.9950866699219 4.477153778076172 276.9950866699219 10 L 276.9950866699219 30 C 276.9950866699219 35.52284622192383 270.6026000976563 40 262.7170104980469 40 L 14.27810668945313 40 C 6.39251708984375 40 -3.0517578125e-05 35.52284622192383 -3.0517578125e-05 30 L -3.0517578125e-05 10 C -3.0517578125e-05 4.477153778076172 6.39251708984375 0 14.27810668945313 0 Z" stroke="none" fill="#c9c9c9"/>
    </g>
    <g id="Rectangle_460" data-name="Rectangle 460" transform="translate(694.5 3403)" fill="none" stroke="#f86e6e" stroke-width="3">
      <path d="M10,0H192.5a0,0,0,0,1,0,0V30a10,10,0,0,1-10,10H10A10,10,0,0,1,0,30V10A10,10,0,0,1,10,0Z" stroke="none"/>
      <path d="M10,1.5H189.5A1.5,1.5,0,0,1,191,3V30a8.5,8.5,0,0,1-8.5,8.5H10A8.5,8.5,0,0,1,1.5,30V10A8.5,8.5,0,0,1,10,1.5Z" fill="none"/>
    </g>
    <line id="Line_30" data-name="Line 30" y2="96" transform="translate(1264.5 3771.5)" fill="none" stroke="#c9c9c9" stroke-width="3"/>
    <rect id="Rectangle_457" data-name="Rectangle 457" width="215" height="44" transform="translate(857 3526)" fill="#30343f"/>
    <rect id="Rectangle_450" data-name="Rectangle 450" width="146" height="51" transform="translate(813 3423)" fill="#30343f"/>
    <text id="使用過的餐盒_紙杯" data-name="使用過的餐盒、紙杯" transform="translate(820 3359)" fill="#fff" font-size="18" font-family="MicrosoftJhengHeiBold, Microsoft JhengHei"><tspan x="0" y="19">使用過的餐盒、紙杯</tspan></text>
    <g id="Rectangle_447" data-name="Rectangle 447" transform="translate(758 3539)" fill="#30343f" stroke="#f86e6e" stroke-width="2">
      <rect width="166" height="50" rx="3" stroke="none"/>
      <rect x="1" y="1" width="164" height="48" rx="2" fill="none"/>
    </g>
    <rect id="Rectangle_451" data-name="Rectangle 451" width="166" height="51" rx="3" transform="translate(1061 3539)" fill="#fff"/>
    <text id="民間清運業者" transform="translate(787 3553)" fill="#f86e6e" font-size="18" font-family="MicrosoftJhengHeiRegular, Microsoft JhengHei"><tspan x="0" y="19">民間清運業者</tspan></text>
    <text id="縣市清潔隊" transform="translate(1098 3553)" fill="#333" font-size="18" font-family="MicrosoftJhengHeiRegular, Microsoft JhengHei"><tspan x="0" y="19">縣市清潔隊</tspan></text>
    <rect id="Rectangle_467" data-name="Rectangle 467" width="43" height="28" transform="translate(978 3681)" fill="#30343f"/>
    <g id="Rectangle_453" data-name="Rectangle 453" transform="translate(886 3688)" fill="#30343f" stroke="#f86e6e" stroke-width="2">
      <rect width="100.743" height="42.063" rx="3" stroke="none"/>
      <rect x="1" y="1" width="98.743" height="40.063" rx="2" fill="none"/>
    </g>
    <text id="紙廠" transform="translate(918 3696)" fill="#f86e6e" font-size="18" font-family="MicrosoftJhengHeiRegular, Microsoft JhengHei"><tspan x="0" y="19">紙廠</tspan></text>
    <text id="業者自己偷燒掉" transform="translate(1023 3831.685)" fill="#fff" font-size="15" font-family="MicrosoftJhengHeiRegular, Microsoft JhengHei"><tspan x="0" y="16">業者自己偷燒掉</tspan></text>
    <rect id="Rectangle_455" data-name="Rectangle 455" width="125" height="48" rx="3" transform="translate(1203 3781)" fill="#f5f5f5"/>
    <text id="專業處理廠" transform="translate(1221 3794)" fill="#333" font-size="18" font-family="MicrosoftJhengHeiRegular, Microsoft JhengHei"><tspan x="0" y="19">專業處理廠</tspan></text>
    <rect id="Rectangle_455-2" data-name="Rectangle 455" width="125" height="48" rx="3" transform="translate(1202 3865)" fill="#f5f5f5"/>
    <text id="順利再生" transform="translate(1228 3878)" fill="#333" font-size="18" font-family="MicrosoftJhengHeiRegular, Microsoft JhengHei"><tspan x="0" y="19">順利再生</tspan></text>
    <g id="Rectangle_447-2" data-name="Rectangle 447" transform="translate(645 3771)" fill="none" stroke="#f86e6e" stroke-width="3">
      <rect width="335.134" height="68" rx="3" stroke="none"/>
      <rect x="1.5" y="1.5" width="332.134" height="65" rx="1.5" fill="none"/>
    </g>
    <text id="焚化爐" transform="translate(785 3792)" fill="#f86e6e" font-size="18" font-family="MicrosoftJhengHeiRegular, Microsoft JhengHei"><tspan x="0" y="19">焚化爐</tspan></text>
    <rect id="Rectangle_448" data-name="Rectangle 448" width="166" height="51" rx="3" transform="translate(952 3427)" fill="#fff"/>
    <text id="資源回收桶_" data-name="資源回收桶
" transform="translate(989 3441)" fill="#333" font-size="18" font-family="MicrosoftJhengHeiRegular, Microsoft JhengHei"><tspan x="0" y="19">資源回收桶</tspan></text>
    <line id="Line_25" data-name="Line 25" y2="294" transform="translate(696.5 3477.5)" fill="none" stroke="#f86e6e" stroke-width="3"/>
    <line id="Line_28" data-name="Line 28" y2="182" transform="translate(836.5 3589.5)" fill="none" stroke="#f86e6e" stroke-width="3"/>
    <line id="Line_29" data-name="Line 29" y2="45" transform="translate(934.5 3728.5)" fill="none" stroke="#f86e6e" stroke-width="3"/>
    <line id="Line_26" data-name="Line 26" y2="19" transform="translate(888.5 3384.5)" fill="none" stroke="#c9c9c9" stroke-width="3"/>
    <rect id="Rectangle_452" data-name="Rectangle 452" width="264.744" height="73.038" rx="3" transform="translate(1013 3633)" fill="#fff"/>
    <text id="回收商" transform="translate(1116 3649)" fill="#333" font-size="18" font-family="MicrosoftJhengHeiRegular, Microsoft JhengHei"><tspan x="0" y="19">回收商</tspan></text>
    <text id="大盤_中盤_小盤商" data-name="大盤、中盤、小盤商" transform="translate(1059 3674)" fill="#333" font-size="15" font-family="MicrosoftJhengHeiRegular, Microsoft JhengHei"><tspan x="0" y="16">大盤、中盤、小盤商</tspan></text>
    <rect id="Rectangle_454" data-name="Rectangle 454" width="125" height="48" rx="3" transform="translate(1014 3781)" fill="#f5f5f5"/>
    <text id="回收場火災" transform="translate(1031 3794)" fill="#333" font-size="18" font-family="MicrosoftJhengHeiRegular, Microsoft JhengHei"><tspan x="0" y="19">回收場火災</tspan></text>
    <text id="紙餐盒的命運分歧點" transform="translate(726 3280)" fill="#fff" font-size="30" font-family="MicrosoftJhengHeiBold, Microsoft JhengHei"><tspan x="27.5" y="32">紙餐盒的命運分歧點</tspan></text>
    <rect id="Rectangle_461" data-name="Rectangle 461" width="125" height="68" transform="translate(753 3406)" fill="#30343f"/>
    <rect id="Rectangle_462" data-name="Rectangle 462" width="74" height="21" transform="translate(839 3406)" fill="#30343f"/>
    <g id="Rectangle_447-3" data-name="Rectangle 447" transform="translate(627 3427)" fill="#30343f" stroke="#f86e6e" stroke-linejoin="round" stroke-width="2">
      <rect width="135" height="50" rx="3" stroke="none"/>
      <rect x="1" y="1" width="133" height="48" rx="2" fill="none"/>
    </g>
    <text id="垃圾桶" transform="translate(666 3441)" fill="#f86e6e" font-size="18" font-family="MicrosoftJhengHeiRegular, Microsoft JhengHei"><tspan x="0" y="19">垃圾桶</tspan></text>
  </g>
</svg>
