<svg xmlns="http://www.w3.org/2000/svg" width="377.808" height="521" viewBox="0 0 377.808 521">
  <g id="chart_mobile" transform="translate(-20 -139)">
    <g id="Rectangle_458" data-name="Rectangle 458" transform="translate(194 498)" fill="#30343f" stroke="#c9c9c9" stroke-width="3">
      <path d="M5,0H158a5,5,0,0,1,5,5V23a5,5,0,0,1-5,5H0a0,0,0,0,1,0,0V5A5,5,0,0,1,5,0Z" stroke="none"/>
      <path d="M5,1.5H158A3.5,3.5,0,0,1,161.5,5V23a3.5,3.5,0,0,1-3.5,3.5H3A1.5,1.5,0,0,1,1.5,25V5A3.5,3.5,0,0,1,5,1.5Z" fill="none"/>
    </g>
    <g id="Rectangle_464" data-name="Rectangle 464" transform="translate(194 498)" fill="none" stroke="#f86e6e" stroke-width="3">
      <path d="M5,0H80a0,0,0,0,1,0,0V25a5,5,0,0,1-5,5H5a5,5,0,0,1-5-5V5A5,5,0,0,1,5,0Z" stroke="none"/>
      <path d="M5,1.5H77A1.5,1.5,0,0,1,78.5,3V25A3.5,3.5,0,0,1,75,28.5H5A3.5,3.5,0,0,1,1.5,25V5A3.5,3.5,0,0,1,5,1.5Z" fill="none"/>
    </g>
    <rect id="Rectangle_459" data-name="Rectangle 459" width="146" height="37" transform="translate(201 501)" fill="#30343f"/>
    <line id="Line_31" data-name="Line 31" y2="48" transform="translate(273.5 476.5)" fill="none" stroke="#c9c9c9" stroke-width="3"/>
    <g id="Rectangle_456" data-name="Rectangle 456" transform="translate(158 361)" fill="#30343f" stroke="#c9c9c9" stroke-width="3">
      <rect width="118" height="28" rx="5" stroke="none"/>
      <rect x="1.5" y="1.5" width="115" height="25" rx="3.5" fill="none"/>
    </g>
    <line id="Line_27" data-name="Line 27" y2="45" transform="translate(219.5 316.5)" fill="none" stroke="#c9c9c9" stroke-width="3"/>
    <g id="Rectangle_463" data-name="Rectangle 463" transform="translate(158 361)" fill="none" stroke="#f86e6e" stroke-width="3">
      <path d="M5,0H60a0,0,0,0,1,0,0V34a5,5,0,0,1-5,5H5a5,5,0,0,1-5-5V5A5,5,0,0,1,5,0Z" stroke="none"/>
      <path d="M5,1.5H57A1.5,1.5,0,0,1,58.5,3V34A3.5,3.5,0,0,1,55,37.5H5A3.5,3.5,0,0,1,1.5,34V5A3.5,3.5,0,0,1,5,1.5Z" fill="none"/>
    </g>
    <g id="Path_1101" data-name="Path 1101" transform="translate(68 241)" fill="#30343f">
      <path d="M 184 38.5 L 10 38.5 C 5.313075065612793 38.5 1.5 34.68692398071289 1.5 30 L 1.5 10 C 1.5 5.313075065612793 5.313075065612793 1.5 10 1.5 L 184 1.5 C 188.6869201660156 1.5 192.5 5.313075065612793 192.5 10 L 192.5 30 C 192.5 34.68692398071289 188.6869201660156 38.5 184 38.5 Z" stroke="none"/>
      <path d="M 10 3 C 6.140182495117188 3 3 6.140182495117188 3 10 L 3 30 C 3 33.85981750488281 6.140182495117188 37 10 37 L 184 37 C 187.8598175048828 37 191 33.85981750488281 191 30 L 191 10 C 191 6.140182495117188 187.8598175048828 3 184 3 L 10 3 M 10 0 L 184 0 C 189.5228424072266 0 194 4.477157592773438 194 10 L 194 30 C 194 35.52284240722656 189.5228424072266 40 184 40 L 10 40 C 4.477157592773438 40 0 35.52284240722656 0 30 L 0 10 C 0 4.477157592773438 4.477157592773438 0 10 0 Z" stroke="none" fill="#c9c9c9"/>
    </g>
    <g id="Rectangle_460" data-name="Rectangle 460" transform="translate(68 241)" fill="none" stroke="#f86e6e" stroke-width="3">
      <path d="M10,0H138a0,0,0,0,1,0,0V30a10,10,0,0,1-10,10H10A10,10,0,0,1,0,30V10A10,10,0,0,1,10,0Z" stroke="none"/>
      <path d="M10,1.5H135A1.5,1.5,0,0,1,136.5,3V30a8.5,8.5,0,0,1-8.5,8.5H10A8.5,8.5,0,0,1,1.5,30V10A8.5,8.5,0,0,1,10,1.5Z" fill="none"/>
    </g>
    <line id="Line_30" data-name="Line 30" y2="96" transform="translate(355.5 527.5)" fill="none" stroke="#c9c9c9" stroke-width="3"/>
    <rect id="Rectangle_457" data-name="Rectangle 457" width="95" height="44" transform="translate(176 364)" fill="#30343f"/>
    <rect id="Rectangle_450" data-name="Rectangle 450" width="122" height="42" transform="translate(132 270)" fill="#30343f"/>
    <text id="使用過的餐盒_紙杯" data-name="使用過的餐盒、紙杯" transform="translate(139 197)" fill="#fff" font-size="15" font-family="MicrosoftJhengHeiBold, Microsoft JhengHei"><tspan x="0" y="16">使用過的餐盒、紙杯</tspan></text>
    <g id="Rectangle_447" data-name="Rectangle 447" transform="translate(20 265)" fill="#30343f" stroke="#f86e6e" stroke-width="2">
      <rect width="103" height="51" rx="3" stroke="none"/>
      <rect x="1" y="1" width="101" height="49" rx="2" fill="none"/>
    </g>
    <text id="垃圾桶" transform="translate(49 280)" fill="#f86e6e" font-size="15" font-family="MicrosoftJhengHeiRegular, Microsoft JhengHei"><tspan x="0" y="16">垃圾桶</tspan></text>
    <g id="Rectangle_447-2" data-name="Rectangle 447" transform="translate(105 377)" fill="#30343f" stroke="#f86e6e" stroke-width="2">
      <rect width="100.744" height="34.038" rx="3" stroke="none"/>
      <rect x="1" y="1" width="98.744" height="32.038" rx="2" fill="none"/>
    </g>
    <rect id="Rectangle_451" data-name="Rectangle 451" width="89.744" height="34.038" rx="3" transform="translate(231 377)" fill="#fff"/>
    <text id="民間清運業者" transform="translate(120 386)" fill="#f86e6e" font-size="12" font-family="MicrosoftJhengHeiRegular, Microsoft JhengHei"><tspan x="0" y="13">民間清運業者</tspan></text>
    <text id="縣市清潔隊" transform="translate(246 386)" fill="#333" font-size="12" font-family="MicrosoftJhengHeiRegular, Microsoft JhengHei"><tspan x="0" y="13">縣市清潔隊</tspan></text>
    <g id="Rectangle_453" data-name="Rectangle 453" transform="translate(172 522)" fill="#30343f" stroke="#f86e6e" stroke-width="2">
      <rect width="46.743" height="29.063" rx="3" stroke="none"/>
      <rect x="1" y="1" width="44.743" height="27.063" rx="2" fill="none"/>
    </g>
    <text id="紙廠" transform="translate(184.808 528.684)" fill="#f86e6e" font-size="11" font-family="MicrosoftJhengHeiRegular, Microsoft JhengHei"><tspan x="0" y="12">紙廠</tspan></text>
    <text id="業者自己偷燒掉" transform="translate(228.808 556.684)" fill="#f86e6e" font-size="11" font-family="MicrosoftJhengHeiRegular, Microsoft JhengHei"><tspan x="0" y="12">業者自己偷燒掉</tspan></text>
    <rect id="Rectangle_455" data-name="Rectangle 455" width="81.766" height="29.063" rx="3" transform="translate(316 522)" fill="#f5f5f5"/>
    <text id="專業處理廠" transform="translate(328.808 528.684)" fill="#333" font-size="11" font-family="MicrosoftJhengHeiRegular, Microsoft JhengHei"><tspan x="0" y="12">專業處理廠</tspan></text>
    <rect id="Rectangle_455-2" data-name="Rectangle 455" width="70.335" height="29.063" rx="3" transform="translate(322 617)" fill="#f5f5f5"/>
    <text id="順利再生" transform="translate(334.808 623.684)" fill="#333" font-size="11" font-family="MicrosoftJhengHeiRegular, Microsoft JhengHei"><tspan x="0" y="12">順利再生</tspan></text>
    <g id="Rectangle_447-3" data-name="Rectangle 447" transform="translate(20 609)" fill="none" stroke="#f86e6e" stroke-width="3">
      <rect width="250.134" height="51" rx="3" stroke="none"/>
      <rect x="1.5" y="1.5" width="247.134" height="48" rx="1.5" fill="none"/>
    </g>
    <text id="焚化爐" transform="translate(122.567 624)" fill="#f86e6e" font-size="15" font-family="MicrosoftJhengHeiRegular, Microsoft JhengHei"><tspan x="0" y="16">焚化爐</tspan></text>
    <rect id="Rectangle_448" data-name="Rectangle 448" width="130" height="51" rx="3" transform="translate(197 265)" fill="#fff"/>
    <text id="資源回收桶_" data-name="資源回收桶
" transform="translate(224 280)" fill="#333" font-size="15" font-family="MicrosoftJhengHeiRegular, Microsoft JhengHei"><tspan x="0" y="16">資源回收桶</tspan></text>
    <line id="Line_25" data-name="Line 25" y2="293" transform="translate(71.5 316.5)" fill="none" stroke="#f86e6e" stroke-width="3"/>
    <line id="Line_28" data-name="Line 28" y2="198" transform="translate(155.5 411.5)" fill="none" stroke="#f86e6e" stroke-width="3"/>
    <line id="Line_29" data-name="Line 29" y2="60" transform="translate(195.5 549.5)" fill="none" stroke="#f86e6e" stroke-width="3"/>
    <line id="Line_26" data-name="Line 26" y2="19" transform="translate(207.5 222.5)" fill="none" stroke="#c9c9c9" stroke-width="3"/>
    <g id="Rectangle_452" data-name="Rectangle 452" transform="translate(200 429)" fill="#fff" stroke="#f86e6e" stroke-width="2">
      <rect width="146.744" height="55.038" rx="3" stroke="none"/>
      <rect x="1" y="1" width="144.744" height="53.038" rx="2" fill="none"/>
    </g>
    <text id="回收商" transform="translate(254 438)" fill="#333" font-size="12" font-family="MicrosoftJhengHeiRegular, Microsoft JhengHei"><tspan x="0" y="13">回收商</tspan></text>
    <text id="大盤_中盤_小盤商" data-name="大盤、中盤、小盤商" transform="translate(218 455)" fill="#333" font-size="12" font-family="MicrosoftJhengHeiRegular, Microsoft JhengHei"><tspan x="0" y="13">大盤、中盤、小盤商</tspan></text>
    <g id="Rectangle_454" data-name="Rectangle 454" transform="translate(228 522)" fill="#30343f" stroke="#f86e6e" stroke-width="2">
      <rect width="79" height="29.063" rx="3" stroke="none"/>
      <rect x="1" y="1" width="77" height="27.063" rx="2" fill="none"/>
    </g>
    <text id="回收場火災" transform="translate(240.808 528.684)" fill="#f86e6e" font-size="11" font-family="MicrosoftJhengHeiRegular, Microsoft JhengHei"><tspan x="0" y="12">回收場火災</tspan></text>
    <text id="紙餐盒的命運分歧點" transform="translate(45 139)" fill="#fff" font-size="30" font-family="MicrosoftJhengHeiBold, Microsoft JhengHei"><tspan x="27.5" y="32">紙餐盒的命運分歧點</tspan></text>
    <rect id="Rectangle_461" data-name="Rectangle 461" width="74" height="42" transform="translate(123 270)" fill="#30343f"/>
    <rect id="Rectangle_462" data-name="Rectangle 462" width="74" height="21" transform="translate(158 244)" fill="#30343f"/>
    <line id="Line_32" data-name="Line 32" y2="39" transform="translate(273.5 483.5)" fill="none" stroke="#f86e6e" stroke-width="3"/>
  </g>
</svg>
